<?xml version="1.0" encoding="UTF-8" standalone="no"?>
<!DOCTYPE svg PUBLIC "-//W3C//DTD SVG 1.1//EN" "http://www.w3.org/Graphics/SVG/1.1/DTD/svg11.dtd">
<svg width="100%" height="100%" viewBox="0 0 320 225" version="1.1" xmlns="http://www.w3.org/2000/svg" xmlns:xlink="http://www.w3.org/1999/xlink" xml:space="preserve" xmlns:serif="http://www.serif.com/" style="fill-rule:evenodd;clip-rule:evenodd;stroke-linejoin:round;stroke-miterlimit:2;">
    <g transform="matrix(0.361227,0,0,0.361227,0,0)">
        <path d="M461.601,348.37L400.416,348.37L400.416,350.344L409.958,350.344L409.958,369.094L411.932,369.094L411.932,350.344L449.098,350.344L449.098,369.094L451.072,369.094L451.072,350.344L461.601,350.344L461.601,348.37Z" style="fill:rgb(63,61,86);fill-rule:nonzero;"/>
    </g>
    <g transform="matrix(0.361227,0,0,0.361227,0,0)">
        <path d="M484.299,300.014L468.509,300.014L468.509,315.803L475.829,315.803L475.829,369.007L477.803,369.007L477.803,315.803L484.299,315.803L484.299,300.014Z" style="fill:rgb(63,61,86);fill-rule:nonzero;"/>
    </g>
    <g transform="matrix(0.361227,0,0,0.361227,0,0)">
        <rect x="400.536" y="342.465" width="61.185" height="1.974" style="fill:rgb(63,61,86);fill-rule:nonzero;"/>
    </g>
    <g transform="matrix(0.361227,0,0,0.361227,0,0)">
        <rect x="400.536" y="337.531" width="61.185" height="1.974" style="fill:rgb(63,61,86);fill-rule:nonzero;"/>
    </g>
    <g transform="matrix(0.361227,0,0,0.361227,0,0)">
        <rect x="400.536" y="332.596" width="61.185" height="1.974" style="fill:rgb(63,61,86);fill-rule:nonzero;"/>
    </g>
    <g transform="matrix(0.361227,0,0,0.361227,-56.7361,-50.0653)">
        <path d="M775.577,513.38L773.604,513.38C773.604,419.785 697.458,343.64 603.863,343.64C510.268,343.64 434.123,419.785 434.123,513.38L432.15,513.38C432.15,418.697 509.18,341.667 603.863,341.667C698.547,341.667 775.577,418.697 775.577,513.38Z" style="fill:rgb(63,61,86);fill-rule:nonzero;"/>
    </g>
    <g transform="matrix(0.361227,0,0,0.361227,0,0)">
        <circle cx="161.352" cy="161.352" r="161.352" style="fill:rgb(0,176,255);"/>
    </g>
    <g transform="matrix(0.361227,0,0,0.361227,-56.7361,-50.0653)">
        <path d="M438.44,192.179C447.011,212.227 451.43,233.806 451.43,255.61C451.43,344.131 378.587,416.974 290.066,416.974C244.06,416.974 200.183,397.3 169.581,362.949C194.924,422.241 253.478,460.892 317.96,460.892C406.482,460.892 479.325,388.048 479.325,299.526C479.325,259.951 464.767,221.727 438.44,192.179Z" style="fill-opacity:0.2;fill-rule:nonzero;"/>
    </g>
    <g transform="matrix(0.361227,0,0,0.361227,0,0)">
        <path d="M161.795,161.352L162.238,161.352L170.217,618.811L153.373,618.811L161.795,161.352Z" style="fill:rgb(63,61,86);fill-rule:nonzero;"/>
    </g>
    <g transform="matrix(0.168281,0.319635,-0.319635,0.168281,184.159,-49.893)">
        <rect x="329.055" y="537.545" width="7.979" height="30.143" style="fill:rgb(63,61,86);fill-rule:nonzero;"/>
    </g>
    <g transform="matrix(0.361227,0,0,0.361227,0,0)">
        <circle cx="755.276" cy="229.806" r="130.593" style="fill:rgb(0,176,255);"/>
    </g>
    <g transform="matrix(0.361227,0,0,0.361227,-56.7361,-50.0653)">
        <path d="M1009.49,281.178C1016.42,297.404 1020,314.87 1020,332.517C1020,404.164 961.042,463.12 889.395,463.12C852.16,463.12 816.647,447.197 791.878,419.394C812.39,467.384 859.782,498.666 911.971,498.666C983.619,498.666 1042.58,439.709 1042.58,368.061C1042.58,336.031 1030.79,305.093 1009.49,281.178Z" style="fill-opacity:0.2;fill-rule:nonzero;"/>
    </g>
    <g transform="matrix(0.361227,0,0,0.361227,0,0)">
        <path d="M755.635,229.806L755.994,229.806L762.452,600.06L748.819,600.06L755.635,229.806Z" style="fill:rgb(63,61,86);fill-rule:nonzero;"/>
    </g>
    <g transform="matrix(0.168281,0.319635,-0.319635,0.168281,304.701,-234.926)">
        <rect x="920.952" y="560.707" width="6.458" height="24.397" style="fill:rgb(63,61,86);fill-rule:nonzero;"/>
    </g>
    <g transform="matrix(0.361227,0,0,0.361227,0,0)">
        <circle cx="369.907" cy="321.704" r="20.558" style="fill:rgb(0,176,255);"/>
    </g>
    <g transform="matrix(0.361227,0,0,0.361227,-56.7361,-50.0653)">
        <path d="M542.265,446.57C543.357,449.124 543.92,451.874 543.92,454.652C543.92,465.931 534.639,475.212 523.36,475.212C517.498,475.212 511.908,472.705 508.009,468.329C511.238,475.883 518.698,480.808 526.914,480.808C538.193,480.808 547.474,471.527 547.474,460.248C547.474,455.205 545.619,450.335 542.265,446.57Z" style="fill-opacity:0.2;fill-rule:nonzero;"/>
    </g>
    <g transform="matrix(0.361227,0,0,0.361227,0,0)">
        <path d="M369.964,321.704L370.02,321.704L371.037,379.99L368.891,379.99L369.964,321.704Z" style="fill:rgb(63,61,86);fill-rule:nonzero;"/>
    </g>
    <g transform="matrix(0.168281,0.319635,-0.319635,0.168281,202.719,-124.075)">
        <rect x="528.328" y="490.574" width="1.017" height="3.841" style="fill:rgb(63,61,86);fill-rule:nonzero;"/>
    </g>
    <g transform="matrix(0.361227,0,0,0.361227,0,0)">
        <circle cx="559.878" cy="255.443" r="52.631" style="fill:rgb(0,176,255);"/>
    </g>
    <g transform="matrix(0.361227,0,0,0.361227,-56.7361,-50.0653)">
        <path d="M756.094,358.887C758.889,365.427 760.331,372.466 760.331,379.578C760.331,408.453 736.57,432.213 707.695,432.213C692.689,432.213 678.376,425.796 668.394,414.591C676.661,433.931 695.761,446.539 716.794,446.539C745.669,446.539 769.43,422.778 769.43,393.903C769.43,380.994 764.681,368.525 756.094,358.887L756.094,358.887Z" style="fill-opacity:0.2;fill-rule:nonzero;"/>
    </g>
    <g transform="matrix(0.361227,0,0,0.361227,0,0)">
        <path d="M560.023,255.443L560.167,255.443L562.77,404.662L557.275,404.662L560.023,255.443Z" style="fill:rgb(63,61,86);fill-rule:nonzero;"/>
    </g>
    <g transform="matrix(0.168281,0.319635,-0.319635,0.168281,234.808,-188.82)">
        <rect x="720.413" y="471.542" width="2.603" height="9.832" style="fill:rgb(63,61,86);fill-rule:nonzero;"/>
    </g>
    <g transform="matrix(0.361227,0,0,0.361227,-56.7361,-50.0653)">
        <path d="M354.588,734.636C354.588,734.636 355.27,720.356 369.24,722.016" style="fill:rgb(63,61,86);fill-rule:nonzero;"/>
    </g>
    <g transform="matrix(0.361227,0,0,0.361227,0,0)">
        <circle cx="193.576" cy="575.457" r="6.992" style="fill:rgb(0,176,255);"/>
    </g>
    <g transform="matrix(0.361227,0,0,0.361227,0,0)">
        <rect x="192.438" y="587.231" width="1.974" height="13.816" style="fill:rgb(63,61,86);fill-rule:nonzero;"/>
    </g>
    <g transform="matrix(0.361227,0,0,0.361227,-56.7361,-50.0653)">
        <path d="M403.931,702.069C403.931,702.069 404.613,687.79 418.583,689.449" style="fill:rgb(63,61,86);fill-rule:nonzero;"/>
    </g>
    <g transform="matrix(0.361227,0,0,0.361227,0,0)">
        <circle cx="242.919" cy="542.89" r="6.992" style="fill:rgb(0,176,255);"/>
    </g>
    <g transform="matrix(0.361227,0,0,0.361227,0,0)">
        <rect x="241.781" y="554.665" width="1.974" height="13.816" style="fill:rgb(63,61,86);fill-rule:nonzero;"/>
    </g>
    <g transform="matrix(0.361227,0,0,0.361227,-56.7361,-50.0653)">
        <path d="M552.67,591.585C552.67,591.585 553.211,580.243 564.307,581.561" style="fill:rgb(63,61,86);fill-rule:nonzero;"/>
    </g>
    <g transform="matrix(0.361227,0,0,0.361227,0,0)">
        <circle cx="392.47" cy="436.64" r="5.554" style="fill:rgb(0,176,255);"/>
    </g>
    <g transform="matrix(0.361227,0,0,0.361227,0,0)">
        <rect x="391.566" y="445.992" width="1.568" height="10.973" style="fill:rgb(63,61,86);fill-rule:nonzero;"/>
    </g>
    <g transform="matrix(0.361227,0,0,0.361227,-56.7361,-50.0653)">
        <path d="M769.779,556.058C769.779,556.058 770.321,544.716 781.417,546.034" style="fill:rgb(63,61,86);fill-rule:nonzero;"/>
    </g>
    <g transform="matrix(0.361227,0,0,0.361227,0,0)">
        <circle cx="609.579" cy="401.113" r="5.554" style="fill:rgb(0,176,255);"/>
    </g>
    <g transform="matrix(0.361227,0,0,0.361227,0,0)">
        <rect x="608.676" y="410.465" width="1.568" height="10.973" style="fill:rgb(63,61,86);fill-rule:nonzero;"/>
    </g>
    <g transform="matrix(0.361227,0,0,0.361227,-56.7361,-50.0653)">
        <path d="M562.539,621.19C562.539,621.19 563.08,609.849 574.176,611.167" style="fill:rgb(63,61,86);fill-rule:nonzero;"/>
    </g>
    <g transform="matrix(0.361227,0,0,0.361227,0,0)">
        <circle cx="402.338" cy="466.246" r="5.554" style="fill:rgb(0,176,255);"/>
    </g>
    <g transform="matrix(0.361227,0,0,0.361227,0,0)">
        <rect x="401.435" y="475.598" width="1.568" height="10.973" style="fill:rgb(63,61,86);fill-rule:nonzero;"/>
    </g>
    <g transform="matrix(0.361227,0,0,0.361227,-56.7361,-50.0653)">
        <path d="M538.854,642.901C538.854,642.901 539.395,631.56 550.491,632.878" style="fill:rgb(63,61,86);fill-rule:nonzero;"/>
    </g>
    <g transform="matrix(0.361227,0,0,0.361227,0,0)">
        <circle cx="378.654" cy="487.957" r="5.554" style="fill:rgb(0,176,255);"/>
    </g>
    <g transform="matrix(0.361227,0,0,0.361227,0,0)">
        <rect x="377.75" y="497.309" width="1.568" height="10.973" style="fill:rgb(63,61,86);fill-rule:nonzero;"/>
    </g>
    <g transform="matrix(0.361227,0,0,0.361227,-56.7361,-50.0653)">
        <path d="M803.333,574.808C803.333,574.808 803.874,563.466 814.97,564.785" style="fill:rgb(63,61,86);fill-rule:nonzero;"/>
    </g>
    <g transform="matrix(0.361227,0,0,0.361227,0,0)">
        <circle cx="643.132" cy="419.864" r="5.554" style="fill:rgb(0,176,255);"/>
    </g>
    <g transform="matrix(0.361227,0,0,0.361227,0,0)">
        <rect x="642.229" y="429.215" width="1.568" height="10.973" style="fill:rgb(63,61,86);fill-rule:nonzero;"/>
    </g>
    <g transform="matrix(0.361227,0,0,0.361227,-56.7361,-50.0653)">
        <path d="M483.59,599.48C483.59,599.48 484.131,588.138 495.227,589.456" style="fill:rgb(63,61,86);fill-rule:nonzero;"/>
    </g>
    <g transform="matrix(0.361227,0,0,0.361227,0,0)">
        <circle cx="323.389" cy="444.535" r="5.554" style="fill:rgb(0,176,255);"/>
    </g>
    <g transform="matrix(0.361227,0,0,0.361227,0,0)">
        <rect x="322.486" y="453.887" width="1.568" height="10.973" style="fill:rgb(63,61,86);fill-rule:nonzero;"/>
    </g>
    <g transform="matrix(0.361227,0,0,0.361227,-56.7361,-50.0653)">
        <path d="M740.174,543.228C740.174,543.228 740.715,531.887 751.811,533.205" style="fill:rgb(63,61,86);fill-rule:nonzero;"/>
    </g>
    <g transform="matrix(0.361227,0,0,0.361227,0,0)">
        <circle cx="579.973" cy="388.284" r="5.554" style="fill:rgb(0,176,255);"/>
    </g>
    <g transform="matrix(0.361227,0,0,0.361227,0,0)">
        <rect x="579.07" y="397.636" width="1.568" height="10.973" style="fill:rgb(63,61,86);fill-rule:nonzero;"/>
    </g>
    <g transform="matrix(0.361227,0,0,0.361227,-56.7361,-50.0653)">
        <path d="M268.731,737.596C268.731,737.596 269.413,723.317 283.383,724.976" style="fill:rgb(63,61,86);fill-rule:nonzero;"/>
    </g>
    <g transform="matrix(0.361227,0,0,0.361227,0,0)">
        <circle cx="107.719" cy="578.417" r="6.992" style="fill:rgb(0,176,255);"/>
    </g>
    <g transform="matrix(0.361227,0,0,0.361227,0,0)">
        <rect x="106.581" y="590.192" width="1.974" height="13.816" style="fill:rgb(63,61,86);fill-rule:nonzero;"/>
    </g>
    <g transform="matrix(0.361227,0,0,0.361227,-56.7361,-50.0653)">
        <path d="M948.678,733.649C948.678,733.649 949.36,719.369 963.33,721.029" style="fill:rgb(63,61,86);fill-rule:nonzero;"/>
    </g>
    <g transform="matrix(0.361227,0,0,0.361227,0,0)">
        <circle cx="787.666" cy="574.47" r="6.992" style="fill:rgb(0,176,255);"/>
    </g>
    <g transform="matrix(0.361227,0,0,0.361227,0,0)">
        <rect x="786.528" y="586.244" width="1.974" height="13.816" style="fill:rgb(63,61,86);fill-rule:nonzero;"/>
    </g>
    <g transform="matrix(0.361227,0,0,0.361227,-56.7361,-50.0653)">
        <path d="M891.44,700.096C891.44,700.096 892.122,685.816 906.093,687.476" style="fill:rgb(63,61,86);fill-rule:nonzero;"/>
    </g>
    <g transform="matrix(0.361227,0,0,0.361227,0,0)">
        <circle cx="730.428" cy="540.917" r="6.992" style="fill:rgb(0,176,255);"/>
    </g>
    <g transform="matrix(0.361227,0,0,0.361227,0,0)">
        <rect x="729.29" y="552.691" width="1.974" height="13.816" style="fill:rgb(63,61,86);fill-rule:nonzero;"/>
    </g>
    <g transform="matrix(0.361227,0,0,0.361227,-56.7361,-50.0653)">
        <path d="M883.546,750.425C883.546,750.425 884.227,736.146 898.198,737.806" style="fill:rgb(63,61,86);fill-rule:nonzero;"/>
    </g>
    <g transform="matrix(0.361227,0,0,0.361227,0,0)">
        <circle cx="722.533" cy="591.246" r="6.992" style="fill:rgb(0,176,255);"/>
    </g>
    <g transform="matrix(0.361227,0,0,0.361227,0,0)">
        <rect x="721.395" y="603.021" width="1.974" height="13.816" style="fill:rgb(63,61,86);fill-rule:nonzero;"/>
    </g>
    <g transform="matrix(0.361227,0,0,0.361227,-56.7361,-50.0653)">
        <path d="M280.091,761.083C280.091,761.083 590.953,679.173 587.992,595.29C582.564,572.099 545.064,566.178 545.064,566.178C545.064,566.178 456.246,554.335 504.602,525.716C552.958,497.097 685.198,504.005 685.198,504.005C685.198,504.005 549.011,525.716 609.21,537.559C657.566,540.519 719.738,553.348 719.738,553.348C719.738,553.348 846.056,579.994 863.82,645.126C881.583,710.259 866.78,760.589 866.78,760.589L280.091,761.083Z" style="fill:rgb(230,230,230);fill-rule:nonzero;"/>
        <path d="M618.673,761.402L617.509,759.775C619.153,758.599 620.773,757.43 622.368,756.267L623.546,757.885C621.944,759.05 620.32,760.222 618.673,761.402Z" style="fill:white;fill-rule:nonzero;"/>
        <path d="M633.183,750.728L631.976,749.135C635.207,746.687 638.39,744.225 641.436,741.817L642.676,743.386C639.619,745.803 636.425,748.273 633.183,750.728ZM652.006,735.829L650.729,734.29C653.856,731.691 656.915,729.08 659.819,726.529L661.14,728.031C658.222,730.595 655.148,733.219 652.006,735.829ZM670.038,719.96L668.669,718.501C671.654,715.701 674.532,712.898 677.224,710.169L678.647,711.573C675.939,714.32 673.041,717.142 670.038,719.96ZM686.897,702.819L685.408,701.483C688.15,698.429 690.744,695.369 693.117,692.39L694.682,693.637C692.284,696.645 689.665,699.735 686.897,702.819ZM701.85,683.952L700.197,682.825C702.522,679.418 704.62,676.016 706.432,672.716L708.186,673.679C706.343,677.035 704.211,680.492 701.85,683.952ZM713.35,662.738L711.488,662.008C712.938,658.348 714.074,654.571 714.884,650.718L716.843,651.12C716.011,655.085 714.842,658.972 713.35,662.738L713.35,662.738ZM716.02,639.042C715.96,635.155 715.42,631.29 714.411,627.535L716.343,627.014C717.394,630.928 717.957,634.956 718.02,639.009L716.02,639.042ZM710.036,616.739C708.137,613.309 705.907,610.072 703.38,607.075L704.913,605.792C707.525,608.889 709.828,612.234 711.79,615.778L710.036,616.739ZM695.116,598.635C692.144,596.017 689.031,593.564 685.79,591.287L686.944,589.654C690.245,591.973 693.416,594.472 696.442,597.139L695.116,598.635ZM675.768,584.85C672.496,582.928 668.967,581.009 665.28,579.147L666.181,577.362C669.906,579.242 673.473,581.181 676.781,583.126L675.768,584.85ZM654.471,574.036C650.989,572.489 647.281,570.932 643.449,569.408L644.189,567.551C648.045,569.084 651.777,570.651 655.283,572.208L654.471,574.036ZM632.235,565.157C628.672,563.865 624.862,562.539 620.914,561.216L621.549,559.319C625.513,560.648 629.338,561.979 632.917,563.276L632.235,565.157ZM609.504,557.511C606.019,556.411 602.267,555.254 598.033,553.971L598.613,552.057C602.854,553.342 606.613,554.502 610.105,555.602L609.504,557.511ZM586.525,550.517C582.479,549.307 578.622,548.151 575.01,547.039L575.599,545.127C579.206,546.239 583.057,547.393 587.098,548.601L586.525,550.517ZM563.541,543.33C559.694,542.06 555.931,540.546 552.277,538.796L553.176,537.009C556.751,538.719 560.431,540.199 564.195,541.439L563.541,543.33ZM548.438,530.22L547.012,528.817C548.836,526.965 552.442,525.152 558.038,523.275L558.673,525.172C553.457,526.921 550.013,528.62 548.438,530.22L548.438,530.22ZM570.115,521.914L569.631,519.972C573.09,519.111 577.031,518.21 581.343,517.294L581.758,519.251C577.469,520.161 573.551,521.057 570.115,521.914L570.115,521.914ZM593.484,516.895L593.109,514.93C596.795,514.226 600.763,513.497 604.906,512.762L605.256,514.731C601.121,515.465 597.161,516.192 593.484,516.895L593.484,516.895ZM617.054,512.7L616.724,510.727C620.492,510.096 624.436,509.449 628.555,508.789L628.871,510.763C624.756,511.424 620.817,512.069 617.054,512.7Z" style="fill:white;fill-rule:nonzero;"/>
        <path d="M640.931,508.865L640.624,506.888C642.568,506.588 644.547,506.284 646.56,505.977L646.86,507.954C644.849,508.261 642.872,508.564 640.931,508.865Z" style="fill:white;fill-rule:nonzero;"/>
        <path d="M685.194,305.717L694.279,298.451C687.221,297.672 684.321,301.521 683.135,304.567C677.621,302.278 671.619,305.278 671.619,305.278L689.796,311.877C688.879,309.428 687.282,307.291 685.194,305.717Z" style="fill:rgb(63,61,86);fill-rule:nonzero;"/>
        <path d="M516.441,361.968L525.526,354.702C518.468,353.923 515.568,357.772 514.381,360.819C508.868,358.529 502.866,361.53 502.866,361.53L521.042,368.128C520.126,365.679 518.529,363.542 516.441,361.968Z" style="fill:rgb(63,61,86);fill-rule:nonzero;"/>
        <path d="M560.85,245.518L569.934,238.252C562.877,237.473 559.977,241.322 558.79,244.369C553.277,242.079 547.274,245.08 547.274,245.08L565.451,251.679C564.534,249.23 562.938,247.092 560.85,245.518Z" style="fill:rgb(63,61,86);fill-rule:nonzero;"/>
        <path d="M659.609,569.04C659.609,569.04 651.74,569.04 650.866,573.848C649.992,578.657 648.68,631.115 649.554,637.673C650.429,644.23 650.429,642.918 650.429,642.918C650.429,642.918 648.686,655.379 652.617,655.925C656.549,656.47 656.549,641.607 656.549,641.607L659.609,588.274L659.609,569.04Z" style="fill:rgb(158,97,106);fill-rule:nonzero;"/>
        <path d="M693.707,569.04C693.707,569.04 701.576,569.04 702.45,573.848C703.324,578.657 704.636,631.115 703.761,637.673C702.887,644.23 702.887,642.918 702.887,642.918C702.887,642.918 704.63,655.379 700.699,655.925C696.767,656.47 696.767,641.607 696.767,641.607L693.707,588.274L693.707,569.04Z" style="fill:rgb(158,97,106);fill-rule:nonzero;"/>
        <path d="M658.298,751.77L654.8,751.77C650.484,751.77 646.932,755.322 646.932,759.638L646.932,759.638L668.352,759.638L668.352,749.584L658.298,749.584L658.298,751.77Z" style="fill:rgb(47,46,65);fill-rule:nonzero;"/>
        <path d="M691.958,751.77L695.456,751.77C699.772,751.769 703.324,755.321 703.324,759.638L703.324,759.638L681.904,759.638L681.904,749.584L691.958,749.584L691.958,751.77Z" style="fill:rgb(47,46,65);fill-rule:nonzero;"/>
    </g>
    <g transform="matrix(0.361227,0,0,0.361227,0,0)">
        <circle cx="516.096" cy="409.021" r="11.366" style="fill:rgb(158,97,106);"/>
    </g>
    <g transform="matrix(0.361227,0,0,0.361227,-56.7361,-50.0653)">
        <path d="M670.538,553.739C670.538,553.739 669.226,568.165 667.478,569.477C665.729,570.788 685.838,568.603 685.838,568.603C685.838,568.603 678.844,558.111 680.155,554.614C681.467,551.116 670.538,553.739 670.538,553.739Z" style="fill:rgb(158,97,106);fill-rule:nonzero;"/>
    </g>
    <g transform="matrix(0.361227,0,0,0.361227,-56.7361,-50.0653)">
        <path d="M696.33,569.04C696.33,569.04 672.286,558.985 656.549,569.04C656.549,569.04 652.615,579.094 655.675,584.777C658.735,590.46 663.543,604.012 658.735,613.192C653.926,622.372 659.172,618.438 659.172,618.438C659.172,618.438 653.052,642.918 652.177,662.153C651.303,681.388 654.8,750.458 657.423,750.895C660.046,751.332 668.352,752.207 669.226,750.895C670.101,749.584 676.221,658.219 676.221,658.219C676.221,658.219 678.844,751.77 681.467,751.77C684.09,751.77 691.084,751.77 692.395,749.584C693.707,747.398 704.636,663.027 700.701,645.541C696.767,628.055 694.144,619.312 694.144,619.312C694.144,619.312 698.953,616.252 697.641,614.504C696.33,612.755 689.773,593.957 692.833,590.897C695.893,587.837 696.33,569.04 696.33,569.04Z" style="fill:rgb(47,46,65);fill-rule:nonzero;"/>
    </g>
    <g transform="matrix(0.361227,0,0,0.361227,0,0)">
        <circle cx="523.309" cy="402.171" r="18.36" style="fill:rgb(47,46,65);"/>
    </g>
    <g transform="matrix(0.361227,0,0,0.361227,-56.7361,-50.0653)">
        <path d="M691.839,531.577C685.45,530.076 681.312,523.738 682.507,517.285C682.453,517.473 682.403,517.662 682.358,517.855C682.141,518.779 682.032,519.726 682.032,520.676C682.032,527.461 687.615,533.045 694.4,533.045C700.119,533.045 705.127,529.079 706.439,523.513C706.484,523.321 706.523,523.128 706.559,522.936C704.756,529.246 698.228,533.078 691.839,531.577Z" style="fill:rgb(47,46,65);fill-rule:nonzero;"/>
    </g>
    <g transform="matrix(0.361227,0,0,0.361227,0,0)">
        <circle cx="535.521" cy="386.387" r="8.985" style="fill:rgb(47,46,65);"/>
    </g>
</svg>
